<?xml version="1.0" standalone="no"?>
<!DOCTYPE svg PUBLIC "-//W3C//DTD SVG 20010904//EN"
 "http://www.w3.org/TR/2001/REC-SVG-20010904/DTD/svg10.dtd">
<svg version="1.0" xmlns="http://www.w3.org/2000/svg"
 width="32.000000pt" height="32.000000pt" viewBox="0 0 32.000000 32.000000"
 preserveAspectRatio="xMidYMid meet">

<g transform="translate(0.000000,32.000000) scale(0.100000,-0.100000)"
fill="#000000" stroke="none">
<path d="M52 300 c-29 -12 -42 -48 -42 -116 0 -54 12 -92 34 -106 6 -4 59 -8
118 -8 141 0 155 14 146 141 -6 86 -17 93 -136 96 -53 2 -107 -2 -120 -7z
m118 -85 c0 -11 -12 -15 -50 -15 -38 0 -50 4 -50 15 0 11 12 15 50 15 38 0 50
-4 50 -15z m80 -55 c0 -6 -37 -10 -90 -10 -53 0 -90 4 -90 10 0 6 37 10 90 10
53 0 90 -4 90 -10z"/>
<path d="M70 25 c0 -12 17 -15 90 -15 73 0 90 3 90 15 0 12 -17 15 -90 15 -73
0 -90 -3 -90 -15z"/>
</g>
</svg>
